<svg width="12" height="12" viewBox="0 0 12 12" fill="none" xmlns="http://www.w3.org/2000/svg">
<path fill-rule="evenodd" clip-rule="evenodd" d="M3.6 1.2C3.26863 1.2 3 1.46863 3 1.8V2.4H2.4C1.73726 2.4 1.2 2.93726 1.2 3.6V9.6C1.2 10.2627 1.73726 10.8 2.4 10.8H9.6C10.2627 10.8 10.8 10.2627 10.8 9.6V3.6C10.8 2.93726 10.2627 2.4 9.6 2.4H9V1.8C9 1.46863 8.73137 1.2 8.4 1.2C8.06863 1.2 7.8 1.46863 7.8 1.8V2.4H4.2V1.8C4.2 1.46863 3.93137 1.2 3.6 1.2ZM3.6 4.2C3.26863 4.2 3 4.46863 3 4.8C3 5.13137 3.26863 5.4 3.6 5.4H8.4C8.73137 5.4 9 5.13137 9 4.8C9 4.46863 8.73137 4.2 8.4 4.2H3.6Z" fill="#24272C"/>
</svg>
