<svg width="17" height="17" viewBox="0 0 17 17" fill="none" xmlns="http://www.w3.org/2000/svg">
<path fill-rule="evenodd" clip-rule="evenodd" d="M3.7001 4.49999C2.81644 4.49999 2.1001 5.21634 2.1001 6.09999V12.5C2.1001 13.3837 2.81644 14.1 3.7001 14.1H13.3001C14.1838 14.1 14.9001 13.3837 14.9001 12.5V6.09999C14.9001 5.21634 14.1838 4.49999 13.3001 4.49999H12.0315C11.8193 4.49999 11.6158 4.41571 11.4658 4.26568L10.5687 3.36862C10.2687 3.06856 9.8617 2.89999 9.43736 2.89999H7.56284C7.13849 2.89999 6.73153 3.06856 6.43147 3.36862L5.53441 4.26568C5.38438 4.41571 5.1809 4.49999 4.96873 4.49999H3.7001ZM8.5001 11.7C9.82558 11.7 10.9001 10.6255 10.9001 9.29999C10.9001 7.97451 9.82558 6.89999 8.5001 6.89999C7.17461 6.89999 6.1001 7.97451 6.1001 9.29999C6.1001 10.6255 7.17461 11.7 8.5001 11.7Z" fill="white"/>
</svg>
