<svg width="24" height="24" viewBox="0 0 24 24" fill="none" xmlns="http://www.w3.org/2000/svg">
<path fill-rule="evenodd" clip-rule="evenodd" d="M13.787 3.80512C13.3321 1.93162 10.6677 1.93162 10.2128 3.80512C9.91903 5.01539 8.53244 5.58973 7.4689 4.9417C5.82252 3.93854 3.93845 5.82261 4.94161 7.46899C5.58964 8.53253 5.01529 9.91912 3.80503 10.2129C1.93153 10.6678 1.93153 13.3322 3.80503 13.7871C5.01529 14.0809 5.58964 15.4675 4.94161 16.531C3.93845 18.1774 5.82252 20.0614 7.4689 19.0583C8.53244 18.4103 9.91903 18.9846 10.2128 20.1949C10.6677 22.0684 13.3321 22.0684 13.787 20.1949C14.0808 18.9846 15.4674 18.4103 16.5309 19.0583C18.1773 20.0614 20.0614 18.1774 19.0582 16.531C18.4102 15.4675 18.9845 14.0809 20.1948 13.7871C22.0683 13.3322 22.0683 10.6678 20.1948 10.2129C18.9845 9.91912 18.4102 8.53253 19.0582 7.46899C20.0614 5.82261 18.1773 3.93854 16.5309 4.9417C15.4674 5.58973 14.0808 5.01539 13.787 3.80512ZM11.9999 15.6C13.9881 15.6 15.5999 13.9882 15.5999 12C15.5999 10.0118 13.9881 8.39999 11.9999 8.39999C10.0117 8.39999 8.3999 10.0118 8.3999 12C8.3999 13.9882 10.0117 15.6 11.9999 15.6Z" fill="#DD3333"/>
</svg>
