<svg width="10" height="10" viewBox="0 0 10 10" fill="none" xmlns="http://www.w3.org/2000/svg">
<path fill-rule="evenodd" clip-rule="evenodd" d="M9.62426 4.57573C9.85858 4.81005 9.85858 5.18995 9.62426 5.42426L5.42426 9.62426C5.18995 9.85857 4.81005 9.85857 4.57574 9.62426L0.375736 5.42426C0.25856 5.30709 0.199981 5.1535 0.2 4.99992V2C0.2 1.00588 1.00589 0.199997 2 0.199997H5.00016C5.15366 0.200039 5.30715 0.258617 5.42426 0.375733L9.62426 4.57573ZM2 2.6C2.33137 2.6 2.6 2.33137 2.6 2C2.6 1.66863 2.33137 1.4 2 1.4C1.66863 1.4 1.4 1.66863 1.4 2C1.4 2.33137 1.66863 2.6 2 2.6Z" fill="#24272C"/>
</svg>
